<svg width="20" height="21" viewBox="0 0 20 21" fill="none" xmlns="http://www.w3.org/2000/svg">
    <path d="M17 9.5H3M17 9.5C18.1046 9.5 19 10.3954 19 11.5V17.5C19 18.6046 18.1046 19.5 17 19.5H3C1.89543 19.5 1 18.6046 1 17.5V11.5C1 10.3954 1.89543 9.5 3 9.5M17 9.5V7.5C17 6.39543 16.1046 5.5 15 5.5M3 9.5V7.5C3 6.39543 3.89543 5.5 5 5.5M5 5.5V3.5C5 2.39543 5.89543 1.5 7 1.5H13C14.1046 1.5 15 2.39543 15 3.5V5.5M5 5.5H15" stroke="black" stroke-width="2" stroke-linecap="round" stroke-linejoin="round"/>
</svg>
