<svg width="93" height="33" viewBox="0 0 93 33" fill="none" xmlns="http://www.w3.org/2000/svg">
<path d="M19.3817 0.483303L11.5082 32.3814H0L7.87351 0.483303H19.3817Z" fill="white"/>
<path d="M36.2689 32.8647C33.6272 32.8647 31.2085 32.333 29.0129 31.2698C26.8172 30.1743 25.0675 28.5794 23.7639 26.4851C22.4602 24.3585 21.8084 21.8131 21.8084 18.8489C21.8084 16.3035 22.2029 13.903 22.992 11.6476C23.781 9.39221 24.9132 7.39455 26.3884 5.65465C27.8636 3.91476 29.699 2.5454 31.8947 1.54657C34.1247 0.515525 36.6634 0 39.5109 0C42.1525 0 44.5369 0.547744 46.664 1.64323C48.8253 2.73872 50.5407 4.33362 51.81 6.42794C53.1137 8.49004 53.7656 11.0193 53.7656 14.0158C53.7656 16.529 53.3882 18.9294 52.6334 21.217C51.8786 23.4725 50.7465 25.4701 49.237 27.21C47.7618 28.9499 45.9263 30.3354 43.7307 31.3664C41.5693 32.3653 39.0821 32.8647 36.2689 32.8647ZM36.6805 28.3216C38.5674 28.3216 40.2142 27.9189 41.6208 27.1134C43.0617 26.2756 44.2625 25.1801 45.2231 23.8269C46.1837 22.4414 46.9041 20.8948 47.3844 19.1872C47.8647 17.4795 48.1048 15.7557 48.1048 14.0158C48.1048 12.0182 47.7275 10.3105 46.9727 8.89279C46.218 7.4751 45.1545 6.39572 43.7822 5.65465C42.4442 4.91359 40.866 4.54306 39.0477 4.54306C37.1609 4.54306 35.4969 4.96192 34.056 5.79965C32.6151 6.60515 31.3972 7.70064 30.4023 9.08611C29.4417 10.4394 28.7213 11.9698 28.241 13.6775C27.7607 15.353 27.5205 17.0767 27.5205 18.8489C27.5205 20.8465 27.8979 22.5542 28.6526 23.9719C29.4074 25.3896 30.4709 26.4689 31.8432 27.21C33.2155 27.9511 34.8279 28.3216 36.6805 28.3216Z" fill="white"/>
<path d="M36.6805 28.3216C38.5674 28.3216 40.2142 27.9189 41.6208 27.1134C43.0617 26.2756 44.2625 25.1801 45.2231 23.8269C46.1837 22.4414 46.9041 20.8948 47.3844 19.1872C47.8647 17.4795 48.1048 15.7557 48.1048 14.0158C48.1048 12.0182 47.7275 10.3105 46.9727 8.89279C46.218 7.4751 45.1545 6.39572 43.7822 5.65465C42.4442 4.91359 40.866 4.54306 39.0477 4.54306C37.1609 4.54306 35.4969 4.96192 34.056 5.79965C32.6151 6.60515 31.3972 7.70064 30.4023 9.08611C29.4417 10.4394 28.7213 11.9698 28.241 13.6775C27.7607 15.353 27.5205 17.0767 27.5205 18.8489C27.5205 20.8465 27.8979 22.5542 28.6526 23.9719C29.4074 25.3896 30.4709 26.4689 31.8432 27.21C33.2155 27.9511 34.8279 28.3216 36.6805 28.3216Z" fill="white"/>
<path d="M64.1787 0H92.4431L84.2613 33H55.997L64.1787 0Z" fill="white"/>
</svg>
