<svg width="199" height="27" viewBox="0 0 199 27" fill="none" xmlns="http://www.w3.org/2000/svg">
<path d="M9.08491 27C5.41502 27 2.87432 26.2528 1.46282 24.7585C0.487608 23.698 0 22.2157 0 20.3116C0 19.4921 0.0898225 18.6124 0.269468 17.6724L1.84778 9.35701C3.00264 3.2591 7.17297 0.210142 14.3588 0.210142C17.3358 0.210142 19.5941 0.812703 21.134 2.01782C22.6738 3.19884 23.4437 4.82576 23.4437 6.89857C23.4437 7.86266 23.2897 8.82676 22.9817 9.79086C22.6994 10.7309 22.4171 11.4298 22.1348 11.8878L21.7114 12.6108H14.8977C15.7446 11.695 16.1681 10.3934 16.1681 8.70625C16.1681 7.81446 15.9243 7.11549 15.4366 6.60934C14.949 6.07909 14.2305 5.81396 13.2809 5.81396C10.6889 5.81396 9.14907 7.16369 8.66146 9.86317L7.31412 17.1662C7.1858 17.7929 7.12164 18.4075 7.12164 19.01C7.12164 20.6008 8.13536 21.3962 10.1628 21.3962C12.6008 21.3962 14.0636 20.1067 14.5513 17.5277H21.4804L21.2879 18.5762C20.2614 24.1921 16.1937 27 9.08491 27Z" fill="black"/>
<path d="M40.3224 0.463218C43.2481 0.463218 45.3268 1.06578 46.5587 2.2709C47.4825 3.18679 47.9445 4.34371 47.9445 5.74165C47.9445 6.2237 47.8932 6.72985 47.7905 7.26011L47.2516 10.0801C46.9436 11.6467 46.4047 12.9121 45.6348 13.8762C44.8905 14.8403 44.0565 15.5272 43.1326 15.937L46.6356 26.4938H38.8596L35.626 16.7685H33.2393L31.6609 26.4938H24.2698L29.1587 0.463218H40.3224ZM37.8972 6.10319H35.01L34.0092 12.3939H36.7038C38.064 12.3939 39.0392 12.0926 39.6295 11.4901C40.2197 10.8634 40.5149 10.0439 40.5149 9.03163C40.5149 7.07934 39.6423 6.10319 37.8972 6.10319Z" fill="black"/>
<path d="M68.8571 26.4938H49.5324L54.4213 0.463218H73.746L72.6681 6.10319H60.2726L59.3872 10.9839H69.627L68.5491 16.6239H58.3094L57.5395 20.8539H69.935L68.8571 26.4938Z" fill="black"/>
<path d="M86.9956 26.4938L87.2266 20.8177H80.7979L78.9116 26.4938H71.559L81.4523 0.463218H94.1558L94.3098 26.4938H86.9956ZM85.4173 6.79011L82.3762 15.9731H87.4191L87.8425 6.79011H85.4173Z" fill="black"/>
<path d="M123.182 6.10319H113.712L109.901 26.4938H102.933L106.744 6.10319H97.2357L98.3136 0.463218H124.259L123.182 6.10319Z" fill="black"/>
<path d="M139.222 0.39543L132.781 26.4938H123.365L129.807 0.39543H139.222Z" fill="black"/>
<path d="M153.039 26.8893C150.878 26.8893 148.899 26.4543 147.103 25.5844C145.306 24.688 143.875 23.3831 142.808 21.6696C141.741 19.9297 141.208 17.8471 141.208 15.4218C141.208 13.3392 141.531 11.3752 142.176 9.52987C142.822 7.68453 143.748 6.05009 144.955 4.62654C146.162 3.20299 147.664 2.0826 149.46 1.26538C151.285 0.421793 153.362 0 155.692 0C157.853 0 159.804 0.448155 161.544 1.34446C163.313 2.24077 164.716 3.54569 165.755 5.25923C166.821 6.9464 167.355 9.01582 167.355 11.4675C167.355 13.5237 167.046 15.4877 166.428 17.3594C165.811 19.2047 164.885 20.8392 163.65 22.2627C162.443 23.6863 160.941 24.8199 159.144 25.6634C157.376 26.4807 155.341 26.8893 153.039 26.8893ZM153.376 23.1722C154.92 23.1722 156.267 22.8427 157.418 22.1837C158.597 21.4982 159.579 20.6019 160.365 19.4947C161.151 18.3612 161.741 17.0958 162.134 15.6986C162.527 14.3014 162.723 12.891 162.723 11.4675C162.723 9.83304 162.414 8.43585 161.797 7.27592C161.179 6.11599 160.309 5.23286 159.187 4.62654C158.092 4.02021 156.801 3.71705 155.313 3.71705C153.769 3.71705 152.408 4.05975 151.229 4.74517C150.05 5.40422 149.053 6.30053 148.239 7.43409C147.453 8.5413 146.864 9.7935 146.471 11.1907C146.078 12.5615 145.882 13.9719 145.882 15.4218C145.882 17.0562 146.19 18.4534 146.808 19.6134C147.425 20.7733 148.296 21.6564 149.418 22.2627C150.541 22.8691 151.86 23.1722 153.376 23.1722Z" fill="black"/>
<path d="M153.376 23.1722C154.92 23.1722 156.267 22.8427 157.418 22.1837C158.597 21.4982 159.579 20.6019 160.365 19.4947C161.151 18.3612 161.741 17.0958 162.134 15.6986C162.527 14.3014 162.723 12.891 162.723 11.4675C162.723 9.83304 162.414 8.43585 161.797 7.27592C161.179 6.11599 160.309 5.23286 159.187 4.62654C158.092 4.02021 156.801 3.71705 155.313 3.71705C153.769 3.71705 152.408 4.05975 151.229 4.74517C150.05 5.40422 149.053 6.30053 148.239 7.43409C147.453 8.5413 146.864 9.7935 146.471 11.1907C146.078 12.5615 145.882 13.9719 145.882 15.4218C145.882 17.0562 146.19 18.4534 146.808 19.6134C147.425 20.7733 148.296 21.6564 149.418 22.2627C150.541 22.8691 151.86 23.1722 153.376 23.1722Z" fill="black"/>
<path d="M175.875 0H199L192.306 27H169.18L175.875 0Z" fill="black"/>
</svg>
