<svg aria-hidden="true" style="position: absolute; width: 0; height: 0; overflow: hidden;" version="1.1" xmlns="http://www.w3.org/2000/svg" xmlns:xlink="http://www.w3.org/1999/xlink">
<defs>
<symbol id="chevron" viewBox="0 0 46 32">
<path d="M3.491 4.862c1.607-1.607 4.212-1.607 5.819 0l13.548 13.548 13.548-13.548c1.607-1.607 4.212-1.607 5.819 0s1.607 4.212 0 5.819l-16.457 16.457c-1.607 1.607-4.212 1.607-5.819 0l-16.457-16.457c-1.607-1.607-1.607-4.212 0-5.819z"></path>
</symbol>
<symbol id="collection" viewBox="0 0 30 32">
<path stroke-linejoin="round" stroke-linecap="round" stroke-miterlimit="4" stroke-width="3.0476" d="M25.905 14.476h-21.333M25.905 14.476c1.683 0 3.048 1.364 3.048 3.048v9.143c0 1.683-1.364 3.048-3.048 3.048h-21.333c-1.683 0-3.048-1.364-3.048-3.048v-9.143c0-1.683 1.364-3.048 3.048-3.048M25.905 14.476v-3.048c0-1.683-1.364-3.048-3.048-3.048M4.571 14.476v-3.048c0-1.683 1.364-3.048 3.048-3.048M7.619 8.381v-3.048c0-1.683 1.364-3.048 3.048-3.048h9.143c1.683 0 3.048 1.364 3.048 3.048v3.048M7.619 8.381h15.238"></path>
</symbol>
<symbol id="footer-logo" viewBox="0 0 90 32">
<path fill="#fff" style="fill: var(--color1, #fff)" d="M18.794 0.469l-7.635 30.931h-11.159l7.635-30.931h11.159z"></path>
<path fill="#fff" style="fill: var(--color1, #fff)" d="M35.17 31.869c-2.562 0-4.907-0.516-7.036-1.547-2.129-1.062-3.826-2.609-5.090-4.64-1.264-2.062-1.896-4.53-1.896-7.405 0-2.468 0.383-4.796 1.148-6.983s1.863-4.124 3.293-5.811 3.21-3.015 5.339-3.984c2.162-1 4.624-1.5 7.385-1.5 2.562 0 4.874 0.531 6.936 1.593 2.096 1.062 3.759 2.609 4.99 4.64 1.264 2 1.896 4.452 1.896 7.358 0 2.437-0.366 4.765-1.098 6.983-0.732 2.187-1.83 4.124-3.293 5.811-1.431 1.687-3.21 3.031-5.339 4.030-2.096 0.969-4.508 1.453-7.236 1.453zM35.569 27.463c1.83 0 3.427-0.39 4.791-1.172 1.397-0.812 2.562-1.875 3.493-3.187 0.931-1.343 1.63-2.843 2.096-4.499s0.699-3.328 0.699-5.015c0-1.937-0.366-3.593-1.098-4.968s-1.763-2.421-3.094-3.14c-1.297-0.719-2.828-1.078-4.591-1.078-1.83 0-3.443 0.406-4.84 1.218-1.397 0.781-2.578 1.843-3.543 3.187-0.931 1.312-1.63 2.796-2.096 4.452-0.466 1.625-0.699 3.296-0.699 5.015 0 1.937 0.366 3.593 1.098 4.968s1.763 2.421 3.094 3.14 2.894 1.078 4.691 1.078z"></path>
<path fill="#fff" style="fill: var(--color1, #fff)" d="M35.569 27.463c1.83 0 3.427-0.39 4.791-1.172 1.397-0.812 2.562-1.875 3.493-3.187 0.931-1.343 1.63-2.843 2.096-4.499s0.699-3.328 0.699-5.015c0-1.937-0.366-3.593-1.098-4.968s-1.763-2.421-3.094-3.14c-1.297-0.719-2.828-1.078-4.591-1.078-1.83 0-3.443 0.406-4.84 1.218-1.397 0.781-2.578 1.843-3.543 3.187-0.931 1.312-1.63 2.796-2.096 4.452-0.466 1.625-0.699 3.296-0.699 5.015 0 1.937 0.366 3.593 1.098 4.968s1.763 2.421 3.094 3.14 2.894 1.078 4.691 1.078z"></path>
<path fill="#fff" style="fill: var(--color1, #fff)" d="M62.234 0h27.408l-7.934 32h-27.408l7.934-32z"></path>
</symbol>
<symbol id="header-logo" viewBox="0 0 236 32">
<path d="M10.767 32c-4.349 0-7.361-0.886-9.034-2.657-1.156-1.257-1.734-3.014-1.734-5.27 0-0.971 0.106-2.014 0.319-3.128l1.871-9.855c1.369-7.227 6.311-10.841 14.828-10.841 3.528 0 6.205 0.714 8.030 2.142 1.825 1.4 2.737 3.328 2.737 5.785 0 1.143-0.183 2.285-0.548 3.428-0.335 1.114-0.669 1.942-1.004 2.485l-0.502 0.857h-8.075c1.004-1.085 1.506-2.628 1.506-4.628 0-1.057-0.289-1.885-0.867-2.485-0.578-0.628-1.429-0.943-2.555-0.943-3.072 0-4.897 1.6-5.475 4.799l-1.597 8.655c-0.152 0.743-0.228 1.471-0.228 2.185 0 1.885 1.201 2.828 3.604 2.828 2.889 0 4.623-1.528 5.201-4.585h8.212l-0.228 1.243c-1.217 6.656-6.038 9.984-14.463 9.984z"></path>
<path d="M47.789 0.549c3.468 0 5.931 0.714 7.391 2.142 1.095 1.085 1.642 2.457 1.642 4.113 0 0.571-0.061 1.171-0.183 1.8l-0.639 3.342c-0.365 1.857-1.004 3.356-1.916 4.499-0.882 1.143-1.871 1.957-2.966 2.442l4.152 12.512h-9.216l-3.832-11.526h-2.829l-1.871 11.526h-8.76l5.794-30.851h13.231zM44.915 7.233h-3.422l-1.186 7.456h3.194c1.612 0 2.768-0.357 3.468-1.071 0.7-0.743 1.049-1.714 1.049-2.914 0-2.314-1.034-3.471-3.102-3.471z"></path>
<path d="M81.608 31.4h-22.903l5.794-30.851h22.903l-1.278 6.684h-14.691l-1.049 5.785h12.136l-1.278 6.684h-12.136l-0.912 5.013h14.691l-1.278 6.684z"></path>
<path d="M103.106 31.4l0.274-6.727h-7.619l-2.236 6.727h-8.714l11.725-30.851h15.056l0.183 30.851h-8.669zM101.235 8.048l-3.604 10.884h5.977l0.502-10.884h-2.874z"></path>
<path d="M145.993 7.233h-11.224l-4.517 24.167h-8.258l4.517-24.167h-11.269l1.278-6.684h30.75l-1.276 6.684z"></path>
<path d="M165.004 0.469l-7.634 30.931h-11.16l7.635-30.931h11.159z"></path>
<path d="M181.38 31.869c-2.561 0-4.907-0.516-7.035-1.547-2.13-1.062-3.826-2.609-5.090-4.64-1.265-2.062-1.896-4.53-1.896-7.405 0-2.468 0.383-4.796 1.147-6.983 0.766-2.187 1.863-4.124 3.294-5.811s3.211-3.015 5.339-3.984c2.163-1 4.625-1.5 7.386-1.5 2.561 0 4.873 0.531 6.936 1.593 2.097 1.062 3.759 2.609 4.991 4.64 1.263 2 1.896 4.452 1.896 7.358 0 2.437-0.366 4.765-1.099 6.983-0.731 2.187-1.829 4.124-3.292 5.811-1.431 1.687-3.211 3.031-5.34 4.030-2.095 0.969-4.507 1.453-7.236 1.453zM181.779 27.463c1.83 0 3.426-0.391 4.791-1.172 1.397-0.812 2.561-1.875 3.493-3.187 0.932-1.343 1.631-2.843 2.097-4.499s0.698-3.328 0.698-5.015c0-1.937-0.366-3.593-1.097-4.968-0.732-1.375-1.764-2.421-3.093-3.14-1.298-0.719-2.828-1.078-4.591-1.078-1.83 0-3.443 0.406-4.84 1.218-1.397 0.781-2.579 1.843-3.544 3.187-0.932 1.312-1.63 2.796-2.095 4.452-0.466 1.625-0.698 3.296-0.698 5.015 0 1.937 0.365 3.593 1.097 4.968 0.731 1.375 1.764 2.421 3.093 3.14 1.331 0.719 2.894 1.078 4.691 1.078z"></path>
<path d="M181.779 27.463c1.83 0 3.426-0.391 4.791-1.172 1.397-0.812 2.561-1.875 3.493-3.187 0.932-1.343 1.631-2.843 2.097-4.499s0.698-3.328 0.698-5.015c0-1.937-0.366-3.593-1.097-4.968-0.732-1.375-1.764-2.421-3.093-3.14-1.298-0.719-2.828-1.078-4.591-1.078-1.83 0-3.443 0.406-4.84 1.218-1.397 0.781-2.579 1.843-3.544 3.187-0.932 1.312-1.63 2.796-2.095 4.452-0.466 1.625-0.698 3.296-0.698 5.015 0 1.937 0.365 3.593 1.097 4.968 0.731 1.375 1.764 2.421 3.093 3.14 1.331 0.719 2.894 1.078 4.691 1.078z"></path>
<path d="M208.444 0h27.407l-7.934 32h-27.409l7.935-32z"></path>
</symbol>
<symbol id="search" viewBox="0 0 32 32">
<path fill="none" stroke="#b5b5b5" style="stroke: var(--color2, #b5b5b5)" stroke-linejoin="round" stroke-linecap="round" stroke-miterlimit="4" stroke-width="3.2" d="M30.4 30.4l-9.6-9.6M24 12.8c0 6.186-5.014 11.2-11.2 11.2s-11.2-5.014-11.2-11.2c0-6.186 5.014-11.2 11.2-11.2s11.2 5.014 11.2 11.2z"></path>
</symbol>
<symbol id="mastercard" viewBox="0 0 32 32">
    <path fill="#eb001b" style="fill: var(--color1, #eb001b)" d="M15.124 24.041c0.077 0.065 0.16 0.131 0.241 0.195-1.569 1.044-3.453 1.651-5.476 1.651-5.463 0.001-9.889-4.425-9.889-9.887 0-5.46 4.427-9.888 9.888-9.888 2.024 0 3.908 0.608 5.473 1.651-0.080 0.068-0.16 0.131-0.22 0.2-2.341 2.023-3.681 4.955-3.681 8.037 0 3.081 1.335 6.013 3.664 8.041zM22.112 6.112c-2.027 0-3.908 0.608-5.473 1.651 0.080 0.068 0.16 0.131 0.22 0.2 2.341 2.023 3.681 4.955 3.681 8.037 0 3.080-1.335 6.009-3.664 8.041-0.077 0.065-0.16 0.131-0.241 0.195 1.569 1.044 3.451 1.651 5.476 1.651 5.463 0.001 9.889-4.425 9.889-9.887 0-5.459-4.427-9.888-9.888-9.888zM16 8.232c-0.128 0.1-0.252 0.2-0.373 0.308-2.085 1.812-3.401 4.48-3.401 7.46 0 2.981 1.316 5.648 3.401 7.46 0.12 0.107 0.247 0.211 0.373 0.309 0.128-0.099 0.252-0.203 0.373-0.309 2.084-1.812 3.401-4.479 3.401-7.46 0-2.98-1.316-5.648-3.401-7.46-0.12-0.107-0.245-0.208-0.373-0.308z"></path>
</symbol>
<symbol id="visa" viewBox="0 0 32 32">
    <path fill="#142787" style="fill: var(--color2, #142787)" d="M23.26 11.497c-0.516-0.195-1.32-0.401-2.32-0.401-2.56 0-4.367 1.291-4.38 3.14-0.016 1.36 1.285 2.125 2.268 2.581 1.009 0.467 1.347 0.76 1.344 1.18-0.007 0.636-0.807 0.924-1.549 0.924-1.021 0-1.581-0.143-2.441-0.5l-0.319-0.148-0.361 2.131c0.621 0.26 1.741 0.483 2.9 0.5 2.721 0 4.5-1.281 4.521-3.252 0.021-1.084-0.68-1.907-2.161-2.584-0.899-0.44-1.459-0.735-1.459-1.181 0-0.395 0.479-0.816 1.479-0.816 0.86-0.013 1.461 0.172 1.94 0.364l0.24 0.108 0.361-2.059zM29.904 11.271h-2c-0.623 0-1.088 0.169-1.361 0.788l-3.847 8.712h2.721l0.544-1.427 3.32 0.003c0.081 0.333 0.32 1.424 0.32 1.424h2.399zM12.88 11.191h2.591l-1.62 9.505h-2.592l1.621-9.508zM6.295 16.429l0.269 1.32 2.535-6.479h2.745l-4.081 9.487h-2.739l-2.24-8.035c-0.047-0.137-0.104-0.231-0.24-0.316-0.757-0.396-1.604-0.719-2.544-0.943l0.033-0.2h4.175c0.565 0.021 1.021 0.2 1.177 0.805l0.909 4.364zM26.705 17.399l1.033-2.659c-0.013 0.027 0.213-0.549 0.344-0.907l0.177 0.82 0.599 2.743h-2.153z"></path>
</symbol>
<symbol id="google" viewBox="0 0 32 32">
    <path d="M16.319 13.713v5.487h9.075c-0.369 2.356-2.744 6.9-9.075 6.9-5.463 0-9.919-4.525-9.919-10.1s4.456-10.1 9.919-10.1c3.106 0 5.188 1.325 6.375 2.469l4.344-4.181c-2.788-2.612-6.4-4.188-10.719-4.188-8.844 0-16 7.156-16 16s7.156 16 16 16c9.231 0 15.363-6.494 15.363-15.631 0-1.050-0.113-1.85-0.25-2.65l-15.113-0.006z"></path>
</symbol>
</defs>
</svg>
