<!-- Generated by IcoMoon.io -->
<svg version="1.1" xmlns="http://www.w3.org/2000/svg" width="30" height="32" viewBox="0 0 30 32">
<title>collection</title>
<path fill="none" stroke-linejoin="round" stroke-linecap="round" stroke-miterlimit="4" stroke-width="3.0476" stroke="#000" d="M25.905 14.476h-21.333M25.905 14.476c1.683 0 3.048 1.364 3.048 3.048v9.143c0 1.683-1.364 3.048-3.048 3.048h-21.333c-1.683 0-3.048-1.364-3.048-3.048v-9.143c0-1.683 1.364-3.048 3.048-3.048M25.905 14.476v-3.048c0-1.683-1.364-3.048-3.048-3.048M4.571 14.476v-3.048c0-1.683 1.364-3.048 3.048-3.048M7.619 8.381v-3.048c0-1.683 1.364-3.048 3.048-3.048h9.143c1.683 0 3.048 1.364 3.048 3.048v3.048M7.619 8.381h15.238"></path>
</svg>
