<!-- Generated by IcoMoon.io -->
<svg version="1.1" xmlns="http://www.w3.org/2000/svg" width="90" height="32" viewBox="0 0 90 32">
<title>footer-logo</title>
<path fill="#fff" d="M18.794 0.469l-7.635 30.931h-11.159l7.635-30.931h11.159z"></path>
<path fill="#fff" d="M35.17 31.869c-2.562 0-4.907-0.516-7.036-1.547-2.129-1.062-3.826-2.609-5.090-4.64-1.264-2.062-1.896-4.53-1.896-7.405 0-2.468 0.383-4.796 1.148-6.983s1.863-4.124 3.293-5.811 3.21-3.015 5.339-3.984c2.162-1 4.624-1.5 7.385-1.5 2.562 0 4.874 0.531 6.936 1.593 2.096 1.062 3.759 2.609 4.99 4.64 1.264 2 1.896 4.452 1.896 7.358 0 2.437-0.366 4.765-1.098 6.983-0.732 2.187-1.83 4.124-3.293 5.811-1.431 1.687-3.21 3.031-5.339 4.030-2.096 0.969-4.508 1.453-7.236 1.453zM35.569 27.463c1.83 0 3.427-0.39 4.791-1.172 1.397-0.812 2.562-1.875 3.493-3.187 0.931-1.343 1.63-2.843 2.096-4.499s0.699-3.328 0.699-5.015c0-1.937-0.366-3.593-1.098-4.968s-1.763-2.421-3.094-3.14c-1.297-0.719-2.828-1.078-4.591-1.078-1.83 0-3.443 0.406-4.84 1.218-1.397 0.781-2.578 1.843-3.543 3.187-0.931 1.312-1.63 2.796-2.096 4.452-0.466 1.625-0.699 3.296-0.699 5.015 0 1.937 0.366 3.593 1.098 4.968s1.763 2.421 3.094 3.14 2.894 1.078 4.691 1.078z"></path>
<path fill="#fff" d="M35.569 27.463c1.83 0 3.427-0.39 4.791-1.172 1.397-0.812 2.562-1.875 3.493-3.187 0.931-1.343 1.63-2.843 2.096-4.499s0.699-3.328 0.699-5.015c0-1.937-0.366-3.593-1.098-4.968s-1.763-2.421-3.094-3.14c-1.297-0.719-2.828-1.078-4.591-1.078-1.83 0-3.443 0.406-4.84 1.218-1.397 0.781-2.578 1.843-3.543 3.187-0.931 1.312-1.63 2.796-2.096 4.452-0.466 1.625-0.699 3.296-0.699 5.015 0 1.937 0.366 3.593 1.098 4.968s1.763 2.421 3.094 3.14 2.894 1.078 4.691 1.078z"></path>
<path fill="#fff" d="M62.234 0h27.408l-7.934 32h-27.408l7.934-32z"></path>
</svg>
